<svg id="Layer_1" data-name="Layer 1" xmlns="http://www.w3.org/2000/svg" viewBox="0 0 759.26 213.37"><defs><style>.cls-1{fill:none;}.cls-2{fill:#353494;}.cls-3{fill:#ed2224;}.cls-4{fill:#feda00;}.cls-5{fill:#117a3d;}.cls-6{font-size:159.5px;fill:#231f20;font-family:Lato-Bold, Lato;font-weight:700;}</style></defs><title>Artboard 6</title><path class="cls-1" d="M69.37,108.66a44.34,44.34,0,1,1,61.34,41l1.66,4a48.67,48.67,0,1,0-37.34,0l1.66-4A44.34,44.34,0,0,1,69.37,108.66Z"/><path class="cls-1" d="M102.42,135.81a29.39,29.39,0,1,1,22.56,0l1.56,3.75a33.47,33.47,0,1,0-25.68,0l1.56-3.75Z"/><path class="cls-1" d="M119.77,123.27h0a15.83,15.83,0,1,0-12.14,0"/><path class="cls-1" d="M53.08,108.66a60.62,60.62,0,1,1,83.87,56l1.47,3.52a64.28,64.28,0,1,0-49.44,0l1.46-3.52A60.66,60.66,0,0,1,53.08,108.66Z"/><path class="cls-2" d="M191.69,108.66a78,78,0,1,0-107.91,72L89,168.18a64.31,64.31,0,1,1,49.44,0l5.2,12.52A78,78,0,0,0,191.69,108.66Z"/><path class="cls-3" d="M174.32,108.66a60.62,60.62,0,1,0-83.88,56l4.59-11a48.67,48.67,0,1,1,37.34,0l4.58,11A60.64,60.64,0,0,0,174.32,108.66Z"/><path class="cls-4" d="M158,108.66a44.34,44.34,0,1,0-61.35,41l4.17-10a33.47,33.47,0,1,1,25.68,0l4.17,10A44.35,44.35,0,0,0,158,108.66Z"/><path class="cls-5" d="M143.1,108.66a29.4,29.4,0,1,0-40.68,27.15l5.21-12.54a15.81,15.81,0,1,1,12.14,0L125,135.82A29.42,29.42,0,0,0,143.1,108.66Z"/><text class="cls-6" transform="translate(221.78 165.98)">Causes</text></svg>